<svg width="1920" height="2744" viewBox="0 0 1920 2744" fill="none" xmlns="http://www.w3.org/2000/svg">
<path d="M0 1415H1920V2744H0V1415Z" fill="#1D1534"/>
<path d="M98.1514 1859.62C-18.7253 1847.62 -43.5573 1771.32 -41.3636 1734.67L-70 453L2001 453L1961.86 1734.67C1964.05 1771.32 1939.22 1847.62 1822.35 1859.62C1676.25 1874.61 1680.2 1927.09 1657.82 1969.57C1635.45 2012.05 1599.91 2054.53 1474.88 2020.8C1349.84 1987.06 1227.43 1975.82 1133.98 2055.78C1059.23 2119.75 986.858 2127 960.249 2127C933.64 2127 861.272 2119.75 786.513 2055.78C693.064 1975.82 570.66 1987.06 445.623 2020.8C320.586 2054.53 285.049 2012.05 262.674 1969.57C240.299 1927.09 244.247 1874.61 98.1514 1859.62Z" fill="#1D1534"/>
<path d="M98.1514 1859.62C-18.7253 1847.62 -43.5573 1771.32 -41.3636 1734.67L-70 453L2001 453L1961.86 1734.67C1964.05 1771.32 1939.22 1847.62 1822.35 1859.62C1676.25 1874.61 1680.2 1927.09 1657.82 1969.57C1635.45 2012.05 1599.91 2054.53 1474.88 2020.8C1349.84 1987.06 1227.43 1975.82 1133.98 2055.78C1059.23 2119.75 986.858 2127 960.249 2127C933.64 2127 861.272 2119.75 786.513 2055.78C693.064 1975.82 570.66 1987.06 445.623 2020.8C320.586 2054.53 285.049 2012.05 262.674 1969.57C240.299 1927.09 244.247 1874.61 98.1514 1859.62Z" fill="url(#paint0_linear_213_154)"/>
<path d="M128.236 717.62C11.3874 709.707 -13.4386 659.376 -11.2455 635.199L-11.2455 332.453L1991.5 332.453V635.199C1993.69 659.376 1968.86 709.707 1852.01 717.62C1705.95 727.51 1709.9 762.127 1687.53 790.15C1665.16 818.173 1629.63 846.196 1504.63 823.942C1379.62 801.689 1257.24 794.271 1163.82 847.02C1089.08 889.22 1016.73 894 990.125 894C963.523 894 891.172 889.22 816.431 847.02C723.005 794.271 600.63 801.689 475.623 823.942C350.616 846.196 315.088 818.173 292.718 790.15C270.349 762.127 274.297 727.51 128.236 717.62Z" fill="#F7F5F9"/>
<path d="M2101.07 474.878C2241.95 510.992 2246.07 582.442 2230.53 613.652L2036.89 603.486L-16.3733 603.486L-256 172.452C-245.898 140.275 -188.377 79.7637 -39.1055 95.1326C147.484 114.344 160.945 68.0944 203.583 36.2863C246.221 4.47811 305.196 -24.4313 448.595 32.2803C591.995 88.992 739.996 125.675 883.971 77.1065C999.151 38.2514 1091.51 47.9234 1124.54 53.7838C1157.57 59.6443 1244.86 81.8497 1315.27 153.635C1403.29 243.367 1559.16 260.602 1726.17 258.968C1893.18 257.334 1922.42 301.897 1935.33 343.561C1948.24 385.225 1924.98 429.735 2101.07 474.878Z" fill="#F7F5F9"/>
<defs>
<linearGradient id="paint0_linear_213_154" x1="-41.4926" y1="68.0472" x2="2617.8" y2="475.611" gradientUnits="userSpaceOnUse">
<stop stop-color="#ED374D"/>
<stop offset="0.505208" stop-color="#FA793F"/>
<stop offset="1" stop-color="#F7F651"/>
</linearGradient>
</defs>
</svg>
