<svg width="1920" height="1351" viewBox="0 0 1920 1351" fill="none" xmlns="http://www.w3.org/2000/svg">
<path d="M128.236 1083.69C11.3874 1071.74 -13.4386 995.733 -11.2455 959.223L-11.2455 502.043L1991.5 502.043V959.223C1993.69 995.733 1968.86 1071.74 1852.01 1083.69C1705.95 1098.62 1709.9 1150.9 1687.53 1193.22C1665.16 1235.54 1629.63 1277.85 1504.63 1244.25C1379.62 1210.64 1257.24 1199.44 1163.82 1279.1C1089.08 1342.82 1016.73 1350.04 990.125 1350.04C963.523 1350.04 891.172 1342.82 816.431 1279.1C723.005 1199.44 600.63 1210.64 475.623 1244.25C350.616 1277.85 315.088 1235.54 292.718 1193.22C270.349 1150.9 274.297 1098.62 128.236 1083.69Z" fill="#1D1534"/>
<path d="M2101.07 717.12C2241.95 771.656 2246.07 879.554 2230.53 926.686L2036.89 911.333L-16.3733 911.334L-256 260.423C-245.898 211.831 -188.377 120.452 -39.1055 143.661C147.484 172.672 160.945 102.83 203.583 54.7964C246.221 6.76247 305.196 -36.8941 448.595 48.747C591.995 134.388 739.996 189.784 883.971 116.44C999.151 57.764 1091.51 72.3698 1124.54 81.2198C1157.57 90.0697 1244.86 123.602 1315.27 232.007C1403.29 367.513 1559.16 393.539 1726.17 391.071C1893.18 388.604 1922.42 455.899 1935.33 518.817C1948.24 581.734 1924.98 648.95 2101.07 717.12Z" fill="#1D1534"/>
</svg>
